<mxfile host="app.diagrams.net" modified="2024-07-15T09:07:40.806Z" agent="Mozilla/5.0 (Macintosh; Intel Mac OS X 10_15_7) AppleWebKit/605.1.15 (KHTML, like Gecko) Version/16.5.2 Safari/605.1.15" version="24.6.5" etag="yPYs5JiFY1qIda-PBAdg" type="github">
  <diagram name="페이지-1" id="P-ZEgtnu1BzoJLXqaN9v">
    <mxGraphModel>
      <root>
        <mxCell id="0" />
        <mxCell id="1" parent="0" />
      </root>
    </mxGraphModel>
  </diagram>
</mxfile>
